<?xml version="1.0" standalone="no"?>
<!DOCTYPE svg PUBLIC "-//W3C//DTD SVG 20010904//EN"
 "http://www.w3.org/TR/2001/REC-SVG-20010904/DTD/svg10.dtd">
<svg version="1.0" xmlns="http://www.w3.org/2000/svg"
 width="185.000000pt" height="47.000000pt" viewBox="0 0 185.000000 47.000000"
 preserveAspectRatio="xMidYMid meet">
<metadata>
Created by potrace 1.16, written by Peter Selinger 2001-2019
</metadata>
<g transform="translate(0.000000,47.000000) scale(0.100000,-0.100000)"
fill="#000000" stroke="none">
<path d="M262 395 c-30 -13 -152 -103 -152 -111 0 -2 39 16 87 41 47 25 97 45
110 45 18 0 24 5 21 17 -4 23 -26 26 -66 8z"/>
<path d="M23 374 c-38 -38 -28 -86 37 -174 29 -38 54 -70 56 -70 2 0 -14 36
-36 80 -62 123 -52 168 35 157 35 -5 45 -3 45 7 0 18 -22 26 -71 26 -30 0 -47
-7 -66 -26z"/>
<path d="M260 307 c0 -4 20 -48 45 -97 61 -121 59 -154 -10 -162 l-30 -3 39
-14 c38 -13 40 -13 63 13 41 48 28 96 -57 205 -28 36 -50 61 -50 58z"/>
<path d="M169 224 c-11 -14 -10 -18 5 -30 24 -17 36 -10 36 22 0 28 -21 32
-41 8z"/>
<path d="M17 183 c-3 -5 -8 -29 -12 -54 -13 -84 30 -130 108 -115 29 6 181
115 172 124 -2 2 -42 -17 -90 -42 -48 -25 -97 -46 -110 -46 -37 0 -54 32 -44
83 11 57 11 57 -5 57 -8 0 -17 -3 -19 -7z"/>
</g>
</svg>
